# xmcd CD database file
#
# Track frame offsets:
#	150
#	27370
#	55902
#	84805
#	122517
#	148395
#	179767
#	210420
#
# Disc length: 3095 seconds
#
# Revision: 0
# Processed by: cddbd v1.5.2PL0 Copyright (c) Steve Scherf et al.
# Submitted via: CDex 1.51
#
DISCID=6d0c1508
DTITLE=Johnny Hammond - Gambler's Life
DYEAR=1975
DGENRE=Jazz
TTITLE0=Gambler's Life
TTITLE1=Rhodesian Thoroughfare
TTITLE2=This Year's Dream
TTITLE3=Star Borne
TTITLE4=Back To The Projects
TTITLE5=Yesterday Was Cool
TTITLE6=Virgo Lady
TTITLE7=Call On Me
EXTD=YEAR: 1975
EXTT0=
EXTT1=
EXTT2=
EXTT3=
EXTT4=
EXTT5=
EXTT6=
EXTT7=
PLAYORDER=
